<svg width="404" height="374" viewBox="0 0 404 374" fill="none" xmlns="http://www.w3.org/2000/svg">
<path opacity="0.3" d="M396.2 121.2L368.8 163.8L327.9 227.3L207 353.714L186.5 381.714H0L31.8 347.6L145.4 121C149.8 112.3 156.5 104.9 164.8 99.7L270.5 18.1C276.2 14.5 282.4 11.8 288.9 10.1L326.2 0L304 59.7L300.1 61.4L248.6 113.9C239.9 122.7 234.9 134.5 234.4 146.8L232.7 189.6C232.3 200.7 245.1 207.2 253.8 200.2L311.3 153.9L318.7 145.3L361.8 95.5C367.8 88.6 377.4 86.3 385.7 89.4C387.2 89.9 388.6 90.6 389.9 91.5C399.8 97.8 402.6 111.2 396.2 121.2Z" transform="translate(2.5 1.78601)" stroke="white" stroke-width="2" stroke-miterlimit="10"/>
</svg>
